<?xml version="1.0" encoding="UTF-8" standalone="no"?>
<svg
   version="1.1"
   x="0px"
   y="0px"
   viewBox="0 0 84 84"
   enable-background="new 0 0 100 100"
   xml:space="preserve"
   id="svg3"
   sodipodi:docname="kettle_70.svg"
   width="84"
   height="84"
   inkscape:version="1.3.2 (091e20e, 2023-11-25, custom)"
   xmlns:inkscape="http://www.inkscape.org/namespaces/inkscape"
   xmlns:sodipodi="http://sodipodi.sourceforge.net/DTD/sodipodi-0.dtd"
   xmlns="http://www.w3.org/2000/svg"
   xmlns:svg="http://www.w3.org/2000/svg"><defs
     id="defs3" /><sodipodi:namedview
     id="namedview3"
     pagecolor="#ffffff"
     bordercolor="#000000"
     borderopacity="0.25"
     inkscape:showpageshadow="2"
     inkscape:pageopacity="0.0"
     inkscape:pagecheckerboard="0"
     inkscape:deskcolor="#d1d1d1"
     inkscape:zoom="14.648"
     inkscape:cx="41.95112"
     inkscape:cy="43.589569"
     inkscape:window-width="3840"
     inkscape:window-height="2066"
     inkscape:window-x="2869"
     inkscape:window-y="-11"
     inkscape:window-maximized="1"
     inkscape:current-layer="svg3" /><path
     d="M 30,6 H 42 V 1.5 C 42,0.671 41.328,0 40.5,0 h -9 C 30.672,0 30,0.671 30,1.5 Z"
     id="path1"
     style="fill:#000000;fill-opacity:1" /><path
     id="path2"
     style="fill:#000000;fill-opacity:1"
     d="M 18 12 L 18 18 L 6 18 C 2.6910033 18 0 20.691003 0 24 L 0 45 C 0 46.656998 1.3430017 48 3 48 C 4.6569983 48 6 46.656998 6 45 L 6 24 L 18 24 L 18 32.039062 C 18 38.457056 16.903623 44.821647 14.765625 50.806641 L 6.4570312 74.066406 C 4.753033 78.854401 8.022536 84 12.769531 84 L 59.230469 84 C 63.977464 84 67.246967 78.854401 65.542969 74.066406 L 62.662109 66 L 66 66 C 72.616993 66 78 60.616993 78 54 L 78 27 C 78 23.691003 80.691003 21 84 21 L 84 15 C 77.383007 15 72 20.383007 72 27 L 72 54 C 72 57.308997 69.308997 60 66 60 L 60.519531 60 L 57.234375 50.806641 C 55.096377 44.821647 54 38.457056 54 32.039062 L 54 12 L 18 12 z M 22 16 L 50 16 L 50 28.011719 C 49.960164 30.405701 49.971804 32.805418 50.097656 35.197266 C 40.699794 35.197414 31.302217 35.197421 21.904297 35.197266 C 21.940222 34.457152 21.973496 33.716545 21.978516 32.974609 C 22.043666 27.982706 21.97281 22.974681 22 18 L 22 16 z " /></svg>
