<?xml version="1.0" encoding="UTF-8" standalone="no"?>
<svg
   version="1.1"
   x="0px"
   y="0px"
   viewBox="0 0 84 84"
   enable-background="new 0 0 100 100"
   xml:space="preserve"
   id="svg3"
   sodipodi:docname="kettle.svg"
   width="84"
   height="84"
   inkscape:version="1.3.2 (091e20e, 2023-11-25, custom)"
   xmlns:inkscape="http://www.inkscape.org/namespaces/inkscape"
   xmlns:sodipodi="http://sodipodi.sourceforge.net/DTD/sodipodi-0.dtd"
   xmlns="http://www.w3.org/2000/svg"
   xmlns:svg="http://www.w3.org/2000/svg"><defs
     id="defs3" /><sodipodi:namedview
     id="namedview3"
     pagecolor="#ffffff"
     bordercolor="#000000"
     borderopacity="0.25"
     inkscape:showpageshadow="2"
     inkscape:pageopacity="0.0"
     inkscape:pagecheckerboard="0"
     inkscape:deskcolor="#d1d1d1"
     inkscape:zoom="14.648"
     inkscape:cx="42.019388"
     inkscape:cy="54.512561"
     inkscape:window-width="3840"
     inkscape:window-height="2066"
     inkscape:window-x="2869"
     inkscape:window-y="-11"
     inkscape:window-maximized="1"
     inkscape:current-layer="svg3" /><path
     d="M 30,6 H 42 V 1.5 C 42,0.671 41.328,0 40.5,0 h -9 C 30.672,0 30,0.671 30,1.5 Z"
     id="path1" /><path
     d="m 0,24 v 21 c 0,1.657 1.343,3 3,3 1.657,0 3,-1.343 3,-3 V 24 h 12 v 8.04 c 0,6.418 -1.097,12.781 -3.235,18.766 L 6.457,74.066 C 4.753,78.854 8.023,84 12.77,84 h 46.46 c 4.747,0 8.017,-5.146 6.313,-9.934 L 62.662,66 H 66 c 6.617,0 12,-5.383 12,-12 V 27 c 0,-3.309 2.691,-6 6,-6 v -6 c -6.617,0 -12,5.383 -12,12 v 27 c 0,3.309 -2.691,6 -6,6 H 60.519 L 57.235,50.806 C 55.097,44.821 54,38.458 54,32.04 V 12 H 18 v 6 H 6 c -3.309,0 -6,2.691 -6,6 z"
     id="path2" /></svg>
